<svg width="30" height="48" viewBox="0 0 30 48" fill="none" xmlns="http://www.w3.org/2000/svg">
<path d="M14.9935 21.7287V17.3058M14.9935 45.1813C7.5327 45.1813 1.60447 38.9125 2.02065 31.4634L3.10038 12.1396C3.2904 8.73855 5.04875 5.78027 7.64966 3.95096C9.45627 2.67902 11.6124 1.99771 13.8219 2.00065H16.1652C21.8629 2.00065 26.5687 6.45079 26.8865 12.1396L27.9663 31.4634C28.3824 38.9125 22.4542 45.1813 14.9935 45.1813V45.1813ZM14.9935 8.06609V2V8.06609ZM27.2296 18.2807C22.3562 22.8789 7.63071 22.8789 2.75726 18.2807H27.2296Z" stroke="#121331" stroke-width="4" stroke-linecap="round" stroke-linejoin="round"/>
<path d="M14.973 17.2353H15.0138C16.126 17.2353 17.0275 16.3337 17.0275 15.2216V10.1601C17.0275 9.04795 16.126 8.14642 15.0138 8.14642H14.973C13.8609 8.14642 12.9594 9.04795 12.9594 10.1601V15.2216C12.9594 16.3337 13.8609 17.2353 14.973 17.2353V17.2353Z" stroke="#FAAC64" stroke-width="3" stroke-linecap="round" stroke-linejoin="round"/>
</svg>
