<svg width="349" height="349" viewBox="0 0 349 349" fill="none" xmlns="http://www.w3.org/2000/svg">
<path d="M349 266.915H0V267.09H349V266.915Z" fill="#EBEBEB"/>
<path d="M314.03 278.146H290.912V278.321H314.03V278.146Z" fill="#EBEBEB"/>
<path d="M190.707 275.961H181.71V276.136H190.707V275.961Z" fill="#EBEBEB"/>
<path d="M244.07 276.701H225.126V276.876H244.07V276.701Z" fill="#EBEBEB"/>
<path d="M290.215 271.669H251.05V271.843H290.215V271.669Z" fill="#EBEBEB"/>
<path d="M55.1351 279.744H36.6172V279.919H55.1351V279.744Z" fill="#EBEBEB"/>
<path d="M77.4017 279.744H61.3477V279.919H77.4017V279.744Z" fill="#EBEBEB"/>
<path d="M133.884 275.877H91.4385V276.052H133.884V275.877Z" fill="#EBEBEB"/>
<path d="M165.426 235.784H30.6495C29.5937 235.783 28.5817 235.362 27.8358 234.615C27.0898 233.867 26.6709 232.855 26.6709 231.799V42.3407C26.6801 41.2909 27.1031 40.2872 27.848 39.5475C28.593 38.8077 29.5997 38.3918 30.6495 38.39H165.426C166.483 38.39 167.497 38.8099 168.245 39.5574C168.992 40.3048 169.412 41.3186 169.412 42.3756V231.799C169.412 232.856 168.992 233.87 168.245 234.617C167.497 235.365 166.483 235.784 165.426 235.784ZM30.6495 38.5296C29.6399 38.5315 28.6724 38.9338 27.9592 39.6483C27.246 40.3628 26.8454 41.3311 26.8454 42.3407V231.799C26.8454 232.808 27.246 233.777 27.9592 234.491C28.6724 235.206 29.6399 235.608 30.6495 235.61H165.426C166.437 235.608 167.405 235.206 168.119 234.492C168.833 233.777 169.236 232.809 169.237 231.799V42.3407C169.236 41.3305 168.833 40.3622 168.119 39.6479C167.405 38.9336 166.437 38.5315 165.426 38.5296H30.6495Z" fill="#EBEBEB"/>
<path d="M316.41 235.784H181.626C180.57 235.783 179.557 235.362 178.81 234.615C178.063 233.868 177.642 232.855 177.641 231.799V42.3407C177.652 41.2903 178.076 40.2865 178.822 39.547C179.568 38.8075 180.576 38.3918 181.626 38.39H316.41C317.459 38.3936 318.464 38.8104 319.207 39.5499C319.95 40.2894 320.372 41.2921 320.382 42.3407V231.799C320.382 232.853 319.964 233.865 319.219 234.612C318.475 235.359 317.465 235.781 316.41 235.784ZM181.626 38.5296C180.616 38.5315 179.648 38.9336 178.933 39.6479C178.219 40.3622 177.817 41.3305 177.815 42.3407V231.799C177.817 232.809 178.219 233.777 178.933 234.492C179.648 235.206 180.616 235.608 181.626 235.61H316.41C317.42 235.608 318.388 235.206 319.103 234.492C319.817 233.777 320.219 232.809 320.221 231.799V42.3407C320.219 41.3305 319.817 40.3622 319.103 39.6479C318.388 38.9336 317.42 38.5315 316.41 38.5296H181.626Z" fill="#EBEBEB"/>
<path d="M52.4966 141.68H148.667V52.9154L52.4966 52.9154L52.4966 141.68Z" fill="#E6E6E6"/>
<path d="M49.558 141.68H147.292V52.9154L49.558 52.9154L49.558 141.68Z" fill="#F0F0F0"/>
<path d="M52.4966 145.596H148.667V141.68H52.4966V145.596Z" fill="#E6E6E6"/>
<path d="M44.6723 145.596H142.406V141.68H44.6723V145.596Z" fill="#F0F0F0"/>
<path d="M143.188 137.576V57.0266L53.669 57.0266V137.576H143.188Z" fill="#FAFAFA"/>
<path d="M123.002 137.576L111.568 57.0266H93.7275L105.161 137.576H123.002Z" fill="white"/>
<path d="M141.289 133.485C141.367 133.485 141.441 133.455 141.496 133.4C141.551 133.345 141.582 133.27 141.582 133.192V59.6999C141.589 59.6571 141.586 59.6134 141.574 59.5718C141.562 59.5302 141.541 59.4917 141.513 59.4588C141.485 59.426 141.45 59.3996 141.411 59.3816C141.372 59.3635 141.329 59.3541 141.285 59.3541C141.242 59.3541 141.199 59.3635 141.16 59.3816C141.121 59.3996 141.086 59.426 141.058 59.4588C141.03 59.4917 141.009 59.5302 140.997 59.5718C140.985 59.6134 140.982 59.6571 140.989 59.6999V133.192C140.989 133.231 140.997 133.27 141.012 133.306C141.027 133.342 141.049 133.375 141.077 133.402C141.105 133.429 141.138 133.451 141.175 133.465C141.211 133.48 141.25 133.486 141.289 133.485Z" fill="#F0F0F0"/>
<path d="M101.329 137.576L89.8956 57.0266H82.9365L94.3698 137.576H101.329Z" fill="white"/>
<path d="M54.1924 137.569L54.1924 57.0197H53.6689L53.6689 137.569H54.1924Z" fill="#E6E6E6"/>
<path opacity="0.6" d="M48.5879 63.2179H144.758L145.142 58.618H48.9718L48.5879 63.2179Z" fill="#EBEBEB"/>
<path opacity="0.6" d="M48.5879 65.8074H144.758L145.142 61.2146H48.9718L48.5879 65.8074Z" fill="#EBEBEB"/>
<path opacity="0.6" d="M48.5879 68.404H144.758L145.142 63.8042H48.9718L48.5879 68.404Z" fill="#EBEBEB"/>
<path opacity="0.6" d="M48.5879 71.0006H144.758L145.142 66.4008H48.9718L48.5879 71.0006Z" fill="#EBEBEB"/>
<path opacity="0.6" d="M48.5879 73.5902H144.758L145.142 68.9904H48.9718L48.5879 73.5902Z" fill="#EBEBEB"/>
<path opacity="0.6" d="M48.5879 76.1867H144.758L145.142 71.5869H48.9718L48.5879 76.1867Z" fill="#EBEBEB"/>
<path d="M280.805 263.746H301.075V151.201H280.805V263.746Z" fill="#F0F0F0"/>
<path d="M197.227 266.908H297.181V263.739H197.227V266.908Z" fill="#F0F0F0"/>
<path d="M280.805 151.194H193.339V263.739H280.805V151.194Z" fill="#F5F5F5"/>
<path d="M272.834 194.498H201.303V220.442H272.834V194.498Z" fill="#F0F0F0"/>
<path d="M272.834 226.229H201.303V252.173H272.834V226.229Z" fill="#F0F0F0"/>
<path d="M228.944 197.974H245.201C246.237 197.974 247.078 197.133 247.078 196.096V195.503C247.078 194.466 246.237 193.625 245.201 193.625H228.944C227.907 193.625 227.066 194.466 227.066 195.503V196.096C227.066 197.133 227.907 197.974 228.944 197.974Z" fill="#F5F5F5"/>
<path d="M272.834 162.767H201.303V188.711H272.834V162.767Z" fill="#F0F0F0"/>
<path d="M228.944 166.25H245.201C246.237 166.25 247.078 165.409 247.078 164.372V163.779C247.078 162.742 246.237 161.901 245.201 161.901H228.944C227.907 161.901 227.066 162.742 227.066 163.779V164.372C227.066 165.409 227.907 166.25 228.944 166.25Z" fill="#F5F5F5"/>
<path d="M228.944 229.705H245.201C246.237 229.705 247.078 228.864 247.078 227.827V227.234C247.078 226.197 246.237 225.356 245.201 225.356H228.944C227.907 225.356 227.066 226.197 227.066 227.234V227.827C227.066 228.864 227.907 229.705 228.944 229.705Z" fill="#F5F5F5"/>
<path d="M190.638 151.194H280.806V146.964H190.638V151.194Z" fill="#F0F0F0"/>
<path d="M303.909 146.971H280.806V151.201H303.909V146.971Z" fill="#E6E6E6"/>
<path d="M87.4249 263.342H96.5059L96.5059 160.003H87.4249L87.4249 263.342Z" fill="#F0F0F0"/>
<path d="M43.8136 266.901H94.1045V263.335H43.8136V266.901Z" fill="#F0F0F0"/>
<path d="M87.4319 159.996H41.4268V263.334H87.4319V159.996Z" fill="#F5F5F5"/>
<path d="M82.5175 213.811H46.3262V232.266H82.5175V213.811Z" fill="#F0F0F0"/>
<path d="M82.5175 237.962H46.3262V256.417H82.5175V237.962Z" fill="#F0F0F0"/>
<path d="M59.3162 224.302H69.5419C70.1201 224.302 70.5889 223.833 70.5889 223.255V222.815C70.5889 222.237 70.1201 221.768 69.5419 221.768H59.3162C58.7379 221.768 58.2692 222.237 58.2692 222.815V223.255C58.2692 223.833 58.7379 224.302 59.3162 224.302Z" fill="#F5F5F5"/>
<path d="M59.3162 248.453H69.5419C70.1201 248.453 70.5889 247.984 70.5889 247.406V246.966C70.5889 246.388 70.1201 245.919 69.5419 245.919H59.3162C58.7379 245.919 58.2692 246.388 58.2692 246.966V247.406C58.2692 247.984 58.7379 248.453 59.3162 248.453Z" fill="#F5F5F5"/>
<path d="M82.5175 165.698H46.3262V184.153H82.5175V165.698Z" fill="#F0F0F0"/>
<path d="M82.5175 189.661H46.3262V208.116H82.5175V189.661Z" fill="#F0F0F0"/>
<path d="M59.3162 176.189H69.5419C70.1201 176.189 70.5889 175.72 70.5889 175.142V174.702C70.5889 174.124 70.1201 173.655 69.5419 173.655H59.3162C58.7379 173.655 58.2692 174.124 58.2692 174.702V175.142C58.2692 175.72 58.7379 176.189 59.3162 176.189Z" fill="#F5F5F5"/>
<path d="M59.3162 200.152H69.5419C70.1201 200.152 70.5889 199.683 70.5889 199.105V198.665C70.5889 198.087 70.1201 197.618 69.5419 197.618H59.3162C58.7379 197.618 58.2692 198.087 58.2692 198.665V199.105C58.2692 199.683 58.7379 200.152 59.3162 200.152Z" fill="#F5F5F5"/>
<path d="M137.764 263.342H152.785V160.003H137.764V263.342Z" fill="#F0F0F0"/>
<path d="M94.16 266.901H150V263.335H94.16V266.901Z" fill="#F0F0F0"/>
<path d="M137.772 159.996H91.7666V263.334H137.772V159.996Z" fill="#F5F5F5"/>
<path d="M132.864 213.811H96.6729V232.266H132.864V213.811Z" fill="#F0F0F0"/>
<path d="M132.864 237.962H96.6729V256.417H132.864V237.962Z" fill="#F0F0F0"/>
<path d="M109.649 224.302H119.875C120.453 224.302 120.922 223.833 120.922 223.255V222.815C120.922 222.237 120.453 221.768 119.875 221.768H109.649C109.071 221.768 108.602 222.237 108.602 222.815V223.255C108.602 223.833 109.071 224.302 109.649 224.302Z" fill="#F5F5F5"/>
<path d="M109.649 248.453H119.875C120.453 248.453 120.922 247.984 120.922 247.406V246.966C120.922 246.388 120.453 245.919 119.875 245.919H109.649C109.071 245.919 108.602 246.388 108.602 246.966V247.406C108.602 247.984 109.071 248.453 109.649 248.453Z" fill="#F5F5F5"/>
<path d="M132.864 165.698H96.6729V184.153H132.864V165.698Z" fill="#F0F0F0"/>
<path d="M132.864 189.661H96.6729V208.116H132.864V189.661Z" fill="#F0F0F0"/>
<path d="M109.649 176.189H119.875C120.453 176.189 120.922 175.72 120.922 175.142V174.702C120.922 174.124 120.453 173.655 119.875 173.655H109.649C109.071 173.655 108.602 174.124 108.602 174.702V175.142C108.602 175.72 109.071 176.189 109.649 176.189Z" fill="#F5F5F5"/>
<path d="M109.649 200.152H119.875C120.453 200.152 120.922 199.683 120.922 199.105V198.665C120.922 198.087 120.453 197.618 119.875 197.618H109.649C109.071 197.618 108.602 198.087 108.602 198.665V199.105C108.602 199.683 109.071 200.152 109.649 200.152Z" fill="#F5F5F5"/>
<path d="M268.332 108.406H283.674L281.866 71.4961H268.332V108.406Z" fill="#F5F5F5"/>
<path d="M292.337 110.403L295.645 121.368H292.337L272.053 110.403H292.337Z" fill="#F5F5F5"/>
<path d="M295.645 110.403V121.368L275.361 110.403H295.645Z" fill="#E6E6E6"/>
<path d="M212.793 110.403L216.101 121.368H212.793L192.509 110.403H212.793Z" fill="#F5F5F5"/>
<path d="M216.101 110.403V121.368L195.817 110.403H216.101Z" fill="#E6E6E6"/>
<path d="M301.522 108.462H282.48V110.828H301.522V108.462Z" fill="#E6E6E6"/>
<path d="M187.811 110.828L282.48 110.828V108.462L187.811 108.462V110.828Z" fill="#F5F5F5"/>
<path d="M245.801 108.406H278.725L282.802 63.6786H249.87L245.801 108.406Z" fill="#E0E0E0"/>
<path d="M244.098 108.406H277.022L281.092 63.6786H248.167L244.098 108.406Z" fill="#E6E6E6"/>
<path d="M274.258 103.458L277.979 68.6274H250.931L247.211 103.458H274.258Z" fill="#F5F5F5"/>
<path d="M231.065 108.406H241.626L240.377 82.9922H231.065V108.406Z" fill="#E0E0E0"/>
<path d="M215.55 108.406H238.221L241.02 77.6106H218.349L215.55 108.406Z" fill="#F0F0F0"/>
<path d="M214.37 108.406H237.048L239.847 77.6106H217.176L214.37 108.406Z" fill="#F5F5F5"/>
<path d="M235.142 105L237.704 81.0168H219.081L216.52 105H235.142Z" fill="#EBEBEB"/>
<path d="M174.5 298.437C249.244 298.437 309.836 294.899 309.836 290.536C309.836 286.172 249.244 282.634 174.5 282.634C99.7567 282.634 39.165 286.172 39.165 290.536C39.165 294.899 99.7567 298.437 174.5 298.437Z" fill="#F5F5F5"/>
<path d="M224.128 281.078L218.837 279.626L220.805 266.978L226.096 268.437L224.128 281.078Z" fill="#FFC3BD"/>
<path d="M263.181 284.596H257.687L256.319 271.885H261.813L263.181 284.596Z" fill="#FFC3BD"/>
<path d="M257.24 283.96H263.927C264.036 283.961 264.142 283.999 264.227 284.067C264.312 284.136 264.371 284.231 264.395 284.337L265.483 289.223C265.509 289.343 265.507 289.466 265.477 289.585C265.448 289.703 265.393 289.814 265.315 289.908C265.237 290.002 265.139 290.077 265.028 290.128C264.917 290.178 264.796 290.203 264.674 290.201C262.524 290.166 260.953 290.033 258.238 290.033C256.57 290.033 251.544 290.208 249.241 290.208C246.938 290.208 246.63 287.932 247.573 287.723C251.803 286.801 254.992 285.524 256.347 284.309C256.59 284.086 256.909 283.961 257.24 283.96Z" fill="#263238"/>
<path d="M219.039 279.018L224.818 280.61C224.923 280.64 225.015 280.704 225.078 280.793C225.142 280.882 225.173 280.99 225.167 281.098L224.916 286.089C224.911 286.21 224.879 286.328 224.822 286.435C224.764 286.542 224.684 286.634 224.585 286.705C224.487 286.775 224.374 286.823 224.255 286.843C224.135 286.863 224.013 286.856 223.897 286.822C221.803 286.208 218.843 285.259 216.219 284.54C213.155 283.695 210.46 283.144 206.873 282.139C204.702 281.538 204.702 279.179 205.665 279.228C210.055 279.465 213.462 280.303 217.643 279.081C218.093 278.931 218.577 278.909 219.039 279.018Z" fill="#263238"/>
<path opacity="0.2" d="M220.805 266.985L219.786 273.497L225.084 274.956L226.096 268.444L220.805 266.985Z" fill="black"/>
<path opacity="0.2" d="M261.813 271.892H256.319L257.031 278.446H262.518L261.813 271.892Z" fill="black"/>
<path d="M197.575 110.675L197.1 105.412L191.949 107.918C191.949 107.918 193.303 112.587 195.858 112.106L197.575 110.675Z" fill="#FFC3BD"/>
<path d="M195.942 102.934L190.135 104.135L191.964 107.918L197.101 105.412L195.942 102.934Z" fill="#FFC3BD"/>
<path d="M231.38 111.471C228.637 112.557 225.994 113.879 223.479 115.421C222.941 115.687 222.404 115.952 221.859 116.203C220.533 116.803 219.186 117.355 217.832 117.829C215.3 118.791 212.63 119.336 209.924 119.442C209.631 119.442 209.33 119.442 209.051 119.407H208.849H208.758C208.685 119.398 208.613 119.384 208.542 119.365C208.079 119.276 207.631 119.126 207.208 118.918C206.032 118.308 204.941 117.545 203.963 116.65C201.748 114.646 199.733 112.432 197.946 110.04L194.365 112.085C195.765 115.148 197.484 118.054 199.496 120.754C200.602 122.243 201.892 123.587 203.335 124.754C204.203 125.457 205.176 126.022 206.217 126.429C206.519 126.538 206.827 126.632 207.139 126.708L207.634 126.82L208.018 126.883C208.514 126.973 209.009 127.029 209.498 127.078C213.121 127.293 216.755 126.896 220.247 125.905C221.699 125.528 223.109 125.089 224.498 124.607C225.992 124.293 238.276 121.571 240.377 117.166C243.093 111.464 237.913 109.139 231.38 111.471Z" fill="#263238"/>
<path opacity="0.2" d="M229.056 123.427C230.782 122.934 232.478 122.342 234.137 121.654L234.556 117.159C234.556 117.159 231.275 118.499 229.056 123.427Z" fill="black"/>
<path d="M263.844 112.266C264.004 112.308 264.154 112.38 264.286 112.48C264.418 112.58 264.529 112.705 264.613 112.847C264.696 112.99 264.751 113.148 264.774 113.312C264.796 113.475 264.786 113.642 264.744 113.802C263.309 119.338 262.252 124.965 261.582 130.645C261.066 134.896 260.752 138.951 260.563 142.636C260.102 151.264 260.291 157.839 260.04 160.086C255.747 159.793 239.574 158.69 230.724 158.048C226.738 126.827 234.353 110.745 234.353 110.745C236.66 110.311 238.991 110.02 241.333 109.872C241.829 109.872 242.331 109.823 242.848 109.816C247.012 109.865 251.169 110.154 255.3 110.682C256.082 110.773 256.871 110.891 257.645 111.017C260.172 111.401 262.448 111.931 263.844 112.266Z" fill="#263238"/>
<path opacity="0.2" d="M259.886 117.962C259.307 121.657 259.985 125.44 261.812 128.704C262.161 126.115 262.594 123.469 263.124 120.796L259.886 117.962Z" fill="black"/>
<path d="M255.076 96.5544C254.008 100.512 252.982 107.569 255.021 110.731C252.822 112.699 250.204 112.204 247.964 111.855C245.235 111.429 244.872 110.808 245.737 109.53C246.275 108.944 246.372 108.344 246.882 106.976C247.294 105.533 247.327 104.009 246.98 102.55L255.076 96.5544Z" fill="#FFC3BD"/>
<path d="M245.556 107.841C245.912 109.635 243.692 110.591 244.341 111.373C244.991 112.155 250.777 114.123 253.325 113.195C255.872 112.266 255.6 112.036 255.419 109.788C255.237 107.541 256.675 106.075 254.818 106.675C253.869 106.983 248.941 106.173 247.524 106.173C246.107 106.173 245.27 106.403 245.556 107.841Z" fill="#263238"/>
<path opacity="0.2" d="M251.775 99.0044L246.979 102.543C247.124 103.282 247.201 104.032 247.21 104.784C248.934 104.658 251.398 102.948 251.719 101.175C251.867 100.461 251.886 99.7255 251.775 99.0044Z" fill="black"/>
<path d="M244.474 83.3691C243.252 83.9345 241.277 86.573 242.903 88.318C244.53 90.063 246.198 82.5804 244.474 83.3691Z" fill="#263238"/>
<path d="M256.682 90.7959C255.782 96.1705 255.523 99.3603 252.494 101.852C247.95 105.593 241.535 102.411 240.81 96.8754C240.16 91.8987 241.745 83.9485 247.266 82.357C248.481 81.9975 249.768 81.9549 251.005 82.2334C252.241 82.5118 253.386 83.1021 254.33 83.948C255.274 84.7938 255.985 85.8672 256.397 87.0658C256.809 88.2645 256.907 89.5486 256.682 90.7959Z" fill="#FFC3BD"/>
<path d="M255.077 94.6489C253.066 93.3715 252.983 91.8917 253.59 90.5655C255.523 86.0844 254.986 83.8159 251.552 84.2277C248.118 84.6395 243.225 85.0374 243.832 83.4669C244.439 81.8964 248.753 81.2333 252.417 81.666C256.082 82.0988 260.011 84.9466 259.23 89.4278C258.476 93.7135 257.561 94.9281 255.077 94.6489Z" fill="#263238"/>
<path d="M258.608 95.8703C257.923 97.0569 256.796 97.9248 255.474 98.2854C253.715 98.7461 252.871 97.1686 253.38 95.4934C253.841 94.0206 255.314 92.0034 257.066 92.2617C258.818 92.5199 259.432 94.4045 258.608 95.8703Z" fill="#FFC3BD"/>
<path d="M218.146 271.731L227.101 274.195C227.101 274.195 234.158 238.828 234.597 221.734C234.73 216.534 236.978 210.384 238.695 202.664C240.872 192.941 243.581 182.422 245.828 174.186C248.187 165.51 249.981 159.374 249.981 159.374L230.73 158.027C230.73 158.027 220.791 203.683 219.597 220.394C218.348 237.767 218.146 271.731 218.146 271.731Z" fill="#407BFF"/>
<path opacity="0.4" d="M218.146 271.731L227.101 274.195C227.101 274.195 234.158 238.828 234.597 221.734C234.73 216.534 236.978 210.384 238.695 202.664C240.872 192.941 243.581 182.422 245.828 174.186C248.187 165.51 249.981 159.374 249.981 159.374L230.73 158.027C230.73 158.027 220.791 203.683 219.597 220.394C218.348 237.767 218.146 271.731 218.146 271.731Z" fill="black"/>
<path opacity="0.2" d="M238.716 202.664C240.893 192.941 243.602 182.422 245.849 174.186L243.853 169.879C239.058 175.554 237.773 193.123 238.716 202.664Z" fill="black"/>
<path d="M241.116 158.753C241.116 158.753 242.512 202.42 244.802 218.334C247.342 235.784 254.49 277.176 254.49 277.176H264.541C264.541 277.176 264.004 237.739 260.856 220.854C257.268 201.631 260.011 160.072 260.011 160.072L241.116 158.753Z" fill="#407BFF"/>
<path opacity="0.4" d="M241.116 158.753C241.116 158.753 242.512 202.42 244.802 218.334C247.342 235.784 254.49 277.176 254.49 277.176H264.541C264.541 277.176 264.004 237.739 260.856 220.854C257.268 201.631 260.011 160.072 260.011 160.072L241.116 158.753Z" fill="black"/>
<path d="M253.29 277.392H265.128V273.853L251.894 273.623L253.29 277.392Z" fill="#263238"/>
<path d="M216.959 271.627L227.639 274.572L228.588 271.124L216.701 267.655L216.959 271.627Z" fill="#263238"/>
<path d="M249.025 91.096C248.983 91.5357 248.711 91.8708 248.425 91.8429C248.138 91.8149 247.936 91.431 247.985 90.9913C248.034 90.5516 248.299 90.2165 248.592 90.2444C248.885 90.2723 249.074 90.6562 249.025 91.096Z" fill="#263238"/>
<path d="M243.504 90.9215C243.462 91.3612 243.19 91.6962 242.897 91.6613C242.603 91.6264 242.415 91.2495 242.464 90.8098C242.513 90.37 242.778 90.042 243.071 90.0699C243.364 90.0978 243.553 90.4817 243.504 90.9215Z" fill="#263238"/>
<path d="M248.634 94.2301C247.935 94.2819 247.237 94.1222 246.63 93.7716C246.023 93.4209 245.536 92.8957 245.232 92.2643C244.927 91.6329 244.82 90.9245 244.924 90.2314C245.028 89.5384 245.339 88.8927 245.815 88.3784C246.291 87.8642 246.911 87.5052 247.594 87.3483C248.277 87.1913 248.992 87.2437 249.645 87.4985C250.298 87.7533 250.859 88.1988 251.255 88.777C251.651 89.3552 251.864 90.0392 251.866 90.7401C251.896 91.6304 251.573 92.4966 250.968 93.1502C250.363 93.8038 249.524 94.1919 248.634 94.2301ZM248.634 87.5642C247.997 87.505 247.358 87.6398 246.799 87.9508C246.241 88.2617 245.789 88.7344 245.504 89.3066C245.219 89.8788 245.114 90.5238 245.202 91.157C245.29 91.7901 245.568 92.3818 245.999 92.8543C246.429 93.3267 246.993 93.6579 247.615 93.8042C248.238 93.9506 248.89 93.9054 249.486 93.6744C250.082 93.4435 250.594 93.0376 250.955 92.5102C251.317 91.9828 251.51 91.3584 251.51 90.7191C251.54 89.9232 251.255 89.1475 250.717 88.5606C250.178 87.9737 249.43 87.6232 248.634 87.5851V87.5642Z" fill="white"/>
<path d="M241.507 94.2301C240.808 94.2819 240.11 94.1222 239.503 93.7716C238.896 93.4209 238.409 92.8957 238.105 92.2643C237.8 91.6329 237.693 90.9245 237.797 90.2314C237.902 89.5384 238.212 88.8927 238.688 88.3784C239.164 87.8642 239.784 87.5052 240.467 87.3483C241.15 87.1913 241.865 87.2437 242.518 87.4985C243.171 87.7533 243.732 88.1988 244.128 88.777C244.524 89.3552 244.737 90.0392 244.739 90.7401C244.769 91.6304 244.446 92.4966 243.841 93.1502C243.236 93.8038 242.397 94.1919 241.507 94.2301ZM241.507 87.5642C240.871 87.5023 240.231 87.634 239.672 87.9422C239.112 88.2503 238.658 88.7205 238.371 89.2909C238.083 89.8614 237.974 90.5055 238.059 91.1387C238.144 91.772 238.418 92.3649 238.846 92.8395C239.274 93.3142 239.835 93.6484 240.456 93.7985C241.077 93.9485 241.729 93.9073 242.326 93.6803C242.923 93.4533 243.438 93.051 243.802 92.5263C244.167 92.0016 244.364 91.379 244.369 90.7401C244.405 89.9429 244.124 89.1638 243.588 88.5728C243.052 87.9817 242.304 87.6267 241.507 87.5851V87.5642Z" fill="white"/>
<path d="M244.803 91.2078C244.253 92.5502 243.523 93.8113 242.632 94.956C242.928 95.176 243.269 95.3287 243.631 95.4034C243.993 95.4781 244.366 95.4732 244.726 95.3888L244.803 91.2078Z" fill="#ED847E"/>
<path d="M250.338 89.7489C250.292 89.7589 250.243 89.7557 250.199 89.7397C250.155 89.7236 250.116 89.6954 250.086 89.6582C249.89 89.3962 249.635 89.184 249.341 89.0385C249.048 88.893 248.725 88.8184 248.397 88.8206C248.363 88.8233 248.329 88.8194 248.297 88.8089C248.264 88.7985 248.234 88.7818 248.208 88.7597C248.183 88.7377 248.161 88.7108 248.146 88.6805C248.13 88.6502 248.121 88.6172 248.118 88.5832C248.115 88.5493 248.119 88.5152 248.13 88.4828C248.14 88.4504 248.157 88.4204 248.179 88.3945C248.201 88.3686 248.228 88.3472 248.258 88.3317C248.288 88.3162 248.321 88.3068 248.355 88.304C248.767 88.2922 249.176 88.3792 249.548 88.5577C249.92 88.7362 250.243 89.001 250.491 89.3301C250.534 89.3849 250.554 89.4544 250.546 89.5237C250.538 89.5929 250.504 89.6562 250.449 89.7C250.416 89.7233 250.378 89.7399 250.338 89.7489Z" fill="#263238"/>
<path d="M246.324 97.72C246.964 97.7292 247.597 97.5851 248.171 97.2997C248.744 97.0144 249.24 96.596 249.619 96.0797C249.639 96.0482 249.646 96.0099 249.638 95.9733C249.63 95.9366 249.608 95.9046 249.577 95.8842C249.561 95.8742 249.544 95.8673 249.526 95.8639C249.507 95.8605 249.489 95.8608 249.47 95.8647C249.434 95.8726 249.402 95.8946 249.381 95.9261C249.026 96.4 248.564 96.7839 248.033 97.0469C247.502 97.31 246.917 97.4449 246.324 97.4408C246.306 97.4408 246.288 97.4444 246.271 97.4514C246.254 97.4584 246.238 97.4687 246.225 97.4817C246.212 97.4946 246.202 97.51 246.195 97.527C246.188 97.5439 246.185 97.5621 246.185 97.5804C246.185 97.5987 246.188 97.6169 246.195 97.6338C246.202 97.6507 246.212 97.6661 246.225 97.6791C246.238 97.6921 246.254 97.7023 246.271 97.7094C246.288 97.7164 246.306 97.72 246.324 97.72Z" fill="#263238"/>
<path d="M240.46 89.7698C240.404 89.7701 240.349 89.7557 240.3 89.7279C240.243 89.6906 240.202 89.6329 240.187 89.5666C240.171 89.5004 240.182 89.4306 240.216 89.3719C240.426 89.015 240.719 88.7139 241.07 88.494C241.421 88.2741 241.82 88.1419 242.233 88.1085C242.302 88.1085 242.369 88.1355 242.418 88.1837C242.468 88.232 242.497 88.2976 242.498 88.3668C242.497 88.4354 242.469 88.5009 242.421 88.5501C242.373 88.5992 242.309 88.6285 242.24 88.632C241.915 88.6616 241.602 88.7691 241.328 88.9452C241.053 89.1214 240.825 89.3611 240.663 89.6441C240.641 89.679 240.611 89.7085 240.576 89.7303C240.541 89.752 240.501 89.7655 240.46 89.7698Z" fill="#263238"/>
<path d="M255.426 284.924C255.051 284.952 254.677 284.854 254.365 284.644C254.266 284.559 254.19 284.451 254.144 284.329C254.097 284.207 254.082 284.076 254.1 283.946C254.098 283.872 254.118 283.798 254.156 283.734C254.194 283.67 254.25 283.618 254.316 283.584C254.93 283.269 256.696 284.358 256.899 284.484C256.919 284.497 256.936 284.516 256.945 284.538C256.955 284.561 256.959 284.585 256.955 284.61C256.952 284.636 256.942 284.661 256.924 284.681C256.907 284.701 256.883 284.715 256.857 284.721C256.389 284.842 255.909 284.91 255.426 284.924ZM254.609 283.786C254.551 283.781 254.493 283.793 254.442 283.821C254.4 283.821 254.365 283.87 254.358 283.974C254.346 284.061 254.356 284.149 254.386 284.23C254.417 284.312 254.467 284.385 254.533 284.442C255.146 284.721 255.842 284.756 256.48 284.54C255.911 284.171 255.275 283.915 254.609 283.786Z" fill="#407BFF"/>
<path d="M256.863 284.728H256.801C256.235 284.421 255.132 283.214 255.251 282.634C255.27 282.539 255.322 282.453 255.396 282.39C255.471 282.328 255.565 282.293 255.663 282.292C255.763 282.278 255.864 282.286 255.96 282.315C256.057 282.344 256.146 282.393 256.221 282.46C256.856 282.976 256.989 284.554 256.989 284.63C256.992 284.654 256.989 284.677 256.979 284.698C256.969 284.719 256.953 284.737 256.933 284.749C256.908 284.749 256.884 284.742 256.863 284.728ZM255.754 282.502H255.698C255.53 282.502 255.509 282.599 255.509 282.634C255.439 282.99 256.137 283.905 256.703 284.33C256.666 283.705 256.44 283.106 256.054 282.613C255.961 282.534 255.841 282.494 255.719 282.502H255.754Z" fill="#407BFF"/>
<path d="M218.327 279.605C217.427 279.542 215.856 279.333 215.416 278.656C215.345 278.555 215.302 278.438 215.291 278.315C215.28 278.192 215.301 278.069 215.353 277.958C215.373 277.889 215.411 277.828 215.463 277.779C215.514 277.73 215.578 277.695 215.647 277.678C216.386 277.511 218.222 279.165 218.439 279.354C218.458 279.369 218.473 279.391 218.48 279.415C218.488 279.439 218.487 279.465 218.48 279.489C218.472 279.513 218.458 279.535 218.438 279.55C218.418 279.566 218.394 279.575 218.369 279.577L218.327 279.605ZM215.716 277.958H215.681C215.654 277.965 215.628 277.98 215.609 278.001C215.589 278.022 215.575 278.048 215.57 278.076C215.539 278.147 215.526 278.224 215.532 278.301C215.538 278.377 215.563 278.451 215.605 278.516C215.856 278.893 216.708 279.214 217.929 279.312C217.196 278.677 216.149 277.909 215.716 277.958Z" fill="#407BFF"/>
<path d="M218.327 279.605C218.312 279.611 218.295 279.615 218.278 279.615C218.262 279.615 218.245 279.611 218.23 279.605C217.671 279.144 216.715 277.65 216.98 277.078C217.043 276.945 217.19 276.799 217.546 276.855C217.674 276.877 217.796 276.925 217.905 276.996C218.014 277.067 218.108 277.159 218.181 277.267C218.697 277.999 218.446 279.465 218.439 279.528C218.436 279.551 218.426 279.572 218.411 279.589C218.397 279.607 218.377 279.619 218.355 279.626L218.327 279.605ZM217.35 277.078C217.245 277.078 217.224 277.141 217.217 277.162C217.057 277.504 217.671 278.635 218.216 279.207C218.323 278.588 218.235 277.952 217.964 277.385C217.911 277.306 217.842 277.238 217.762 277.187C217.681 277.135 217.591 277.1 217.497 277.085C217.447 277.086 217.398 277.093 217.35 277.106V277.078Z" fill="#407BFF"/>
<path d="M262.301 155.738L256.717 156.296L260.046 161.58C260.046 161.58 264.569 159.8 263.892 157.301L262.301 155.738Z" fill="#FFC3BD"/>
<path d="M253.046 159.074L256.48 163.751L260.075 161.58L256.745 156.296L253.046 159.074Z" fill="#FFC3BD"/>
<path d="M275.36 131.754C274.858 130.358 274.286 128.962 273.678 127.643C273.225 126.184 269.386 114.207 264.8 112.518C258.888 110.34 257.052 115.714 259.977 122.003C261.31 124.635 262.87 127.146 264.639 129.507C264.953 130.016 265.267 130.526 265.561 131.043C266.259 132.313 266.957 133.604 267.557 134.909C268.749 137.339 269.538 139.946 269.895 142.629C269.895 142.929 269.937 143.223 269.937 143.509V143.711C269.934 143.741 269.934 143.772 269.937 143.802C269.943 143.874 269.943 143.946 269.937 144.018C269.895 144.496 269.787 144.966 269.616 145.414C269.116 146.641 268.459 147.798 267.661 148.855C265.869 151.248 263.847 153.46 261.624 155.459L263.997 158.837C266.918 157.16 269.653 155.178 272.157 152.925C273.538 151.685 274.76 150.278 275.793 148.737C276.412 147.805 276.883 146.783 277.189 145.707C277.274 145.398 277.339 145.083 277.385 144.765L277.447 144.263V143.872C277.489 143.369 277.496 142.874 277.503 142.385C277.391 138.746 276.667 135.152 275.36 131.754Z" fill="#263238"/>
<path d="M60.0774 175.596H176.008C177.504 175.581 178.937 174.994 180.013 173.956C181.089 172.917 181.727 171.506 181.795 170.012L184.391 96.0796C184.419 95.3552 184.301 94.6326 184.042 93.9552C183.784 93.2779 183.392 92.6597 182.888 92.1381C182.385 91.6164 181.781 91.202 181.113 90.9197C180.445 90.6375 179.728 90.4932 179.003 90.4956H63.0648C61.5687 90.5085 60.1346 91.0948 59.058 92.1337C57.9814 93.1726 57.3445 94.585 57.2784 96.0796L54.6818 170.005C54.6536 170.73 54.7723 171.454 55.031 172.132C55.2896 172.81 55.6828 173.429 56.1869 173.951C56.6909 174.474 57.2955 174.889 57.964 175.171C58.6326 175.454 59.3515 175.598 60.0774 175.596Z" fill="#407BFF"/>
<path opacity="0.4" d="M60.0774 175.596H176.008C177.504 175.581 178.937 174.994 180.013 173.956C181.089 172.917 181.727 171.506 181.795 170.012L184.391 96.0796C184.419 95.3552 184.301 94.6326 184.042 93.9552C183.784 93.2779 183.392 92.6597 182.888 92.1381C182.385 91.6164 181.781 91.202 181.113 90.9197C180.445 90.6375 179.728 90.4932 179.003 90.4956H63.0648C61.5687 90.5085 60.1346 91.0948 59.058 92.1337C57.9814 93.1726 57.3445 94.585 57.2784 96.0796L54.6818 170.005C54.6536 170.73 54.7723 171.454 55.031 172.132C55.2896 172.81 55.6828 173.429 56.1869 173.951C56.6909 174.474 57.2955 174.889 57.964 175.171C58.6326 175.454 59.3515 175.598 60.0774 175.596Z" fill="black"/>
<path d="M61.18 175.596H177.118C178.613 175.58 180.045 174.992 181.121 173.954C182.197 172.916 182.835 171.505 182.904 170.012L185.501 96.0797C185.529 95.3547 185.41 94.6315 185.152 93.9536C184.893 93.2758 184.5 92.6573 183.995 92.1356C183.491 91.6138 182.887 91.1995 182.218 90.9177C181.55 90.6358 180.831 90.4923 180.105 90.4957H64.1675C62.6726 90.5103 61.2402 91.0974 60.1651 92.1361C59.09 93.1749 58.454 94.5862 58.388 96.0797L55.7915 170.005C55.7623 170.73 55.8801 171.453 56.138 172.131C56.3959 172.81 56.7884 173.429 57.2919 173.951C57.7954 174.473 58.3995 174.888 59.0677 175.171C59.7359 175.454 60.4545 175.598 61.18 175.596Z" fill="#407BFF"/>
<path opacity="0.9" d="M176.008 170.94C176.599 170.934 177.164 170.701 177.588 170.291C178.013 169.881 178.264 169.324 178.291 168.734L180.783 97.343C180.798 97.0588 180.755 96.7744 180.656 96.5073C180.558 96.2402 180.406 95.996 180.21 95.7896C180.014 95.5832 179.778 95.4189 179.517 95.3067C179.255 95.1946 178.973 95.1369 178.689 95.1373H65.2776C64.6879 95.1455 64.1235 95.3782 63.6995 95.7881C63.2754 96.1979 63.0235 96.754 62.9951 97.343L60.4893 168.734C60.4741 169.019 60.5171 169.303 60.6155 169.57C60.7139 169.837 60.8657 170.081 61.0617 170.288C61.2577 170.494 61.4937 170.659 61.7553 170.771C62.0169 170.883 62.2987 170.941 62.5833 170.94H176.008Z" fill="white"/>
<path opacity="0.3" d="M141.792 151.62C145.458 147.001 147.595 141.356 147.907 135.468C148.209 129.747 146.619 124.086 143.384 119.358V119.274C143.329 119.193 143.268 119.116 143.202 119.044C140.801 115.661 137.619 112.908 133.926 111.018C130.233 109.128 126.138 108.158 121.99 108.19C117.701 108.223 113.474 109.214 109.618 111.09C105.762 112.967 102.374 115.682 99.7027 119.037C99.6469 119.1 99.591 119.156 99.5422 119.218C99.5319 119.242 99.5203 119.266 99.5073 119.288C95.8368 123.907 93.6971 129.555 93.3858 135.447C93.0709 141.188 94.6637 146.871 97.9158 151.613C97.9132 151.633 97.9132 151.655 97.9158 151.675L97.9786 151.752C100.376 155.166 103.567 157.947 107.276 159.856C110.986 161.765 115.103 162.744 119.275 162.711C123.556 162.677 127.776 161.689 131.627 159.817C135.478 157.945 138.862 155.238 141.534 151.892C141.598 151.823 141.659 151.751 141.715 151.675C141.742 151.658 141.768 151.64 141.792 151.62ZM119.456 159.486C115.554 159.486 112.267 154.928 110.598 148.206C113.712 147.582 116.881 147.271 120.056 147.278C123.202 147.271 126.341 147.584 129.424 148.213C127.092 154.956 123.358 159.486 119.463 159.486H119.456ZM120.217 144.025C116.771 144.018 113.333 144.36 109.956 145.044C109.542 142.415 109.36 139.755 109.412 137.094H131.713C131.494 139.777 131.051 142.436 130.387 145.044C127.043 144.357 123.638 144.016 120.224 144.025H120.217ZM96.6036 137.094H106.166C106.098 140.017 106.294 142.939 106.752 145.826C104.372 146.496 102.075 147.432 99.9051 148.618C97.7993 145.139 96.6619 141.16 96.6106 137.094H96.6036ZM101.21 122.324C103.281 123.519 105.489 124.456 107.786 125.116C107.05 127.982 106.566 130.906 106.341 133.855H96.7781C97.2672 129.701 98.7912 125.737 101.21 122.324ZM121.836 111.457C125.738 111.457 129.019 116.015 130.694 122.736C127.577 123.357 124.407 123.668 121.229 123.665C118.083 123.67 114.945 123.359 111.862 122.736C114.193 116.015 117.962 111.457 121.829 111.457H121.836ZM121.075 126.91C124.521 126.917 127.959 126.575 131.336 125.891C131.747 128.523 131.929 131.185 131.88 133.848H109.586C109.801 131.163 110.245 128.501 110.913 125.891C114.254 126.579 117.657 126.92 121.068 126.91H121.075ZM144.689 133.848H135.126C135.191 130.924 134.995 127.999 134.54 125.109C136.919 124.438 139.216 123.501 141.387 122.317C143.491 125.8 144.628 129.78 144.682 133.848H144.689ZM134.966 137.094H144.528C144.033 141.243 142.506 145.203 140.089 148.611C138.018 147.419 135.81 146.481 133.514 145.819C134.252 142.959 134.736 140.039 134.959 137.094H134.966ZM139.538 119.721C137.736 120.654 135.844 121.4 133.891 121.948C133.17 118.697 131.828 115.616 129.94 112.874C133.688 114.265 136.998 116.628 139.531 119.721H139.538ZM113.586 112.888C111.449 115.603 109.809 118.675 108.742 121.962C106.86 121.415 105.041 120.669 103.318 119.735C106.135 116.657 109.656 114.308 113.579 112.888H113.586ZM101.769 151.222C103.569 150.291 105.459 149.542 107.409 148.988C108.131 152.238 109.473 155.319 111.359 158.062C107.61 156.673 104.298 154.312 101.762 151.222H101.769ZM127.734 158.048C129.876 155.336 131.516 152.263 132.578 148.974C134.461 149.521 136.28 150.27 138.002 151.208C135.184 154.286 131.66 156.633 127.734 158.048Z" fill="#407BFF"/>
<path opacity="0.6" d="M86.1826 95.1373L76.1035 170.94H89.5191L99.5982 95.1373H86.1826Z" fill="white"/>
<path opacity="0.6" d="M104.177 95.1373L94.0977 170.94H99.5979L109.684 95.1373H104.177Z" fill="white"/>
<path opacity="0.3" d="M121.194 92.9387C121.189 93.0503 121.207 93.1618 121.247 93.2662C121.287 93.3707 121.347 93.466 121.425 93.5463C121.503 93.6266 121.596 93.6903 121.699 93.7334C121.802 93.7766 121.913 93.7983 122.025 93.7972C122.255 93.7956 122.475 93.7055 122.64 93.5456C122.805 93.3857 122.902 93.1683 122.911 92.9387C122.916 92.827 122.898 92.7156 122.858 92.6111C122.818 92.5066 122.758 92.4113 122.68 92.331C122.603 92.2507 122.509 92.187 122.406 92.1439C122.303 92.1008 122.192 92.0791 122.081 92.0801C121.851 92.0817 121.63 92.1719 121.465 92.3317C121.3 92.4916 121.203 92.709 121.194 92.9387Z" fill="white"/>
<path d="M194.121 252.76H78.1765C76.5856 252.684 75.0607 252.101 73.8249 251.096C72.5891 250.091 71.7072 248.718 71.3082 247.176L56.4687 182.332C55.7707 179.26 57.7042 176.748 60.7754 176.748H176.713C178.304 176.825 179.828 177.408 181.064 178.412C182.299 179.417 183.182 180.79 183.582 182.332L198.421 247.176C199.133 250.247 197.193 252.76 194.121 252.76Z" fill="#407BFF"/>
<path opacity="0.4" d="M194.121 252.76H78.1765C76.5856 252.684 75.0607 252.101 73.8249 251.096C72.5891 250.091 71.7072 248.718 71.3082 247.176L56.4687 182.332C55.7707 179.26 57.7042 176.748 60.7754 176.748H176.713C178.304 176.825 179.828 177.408 181.064 178.412C182.299 179.417 183.182 180.79 183.582 182.332L198.421 247.176C199.133 250.247 197.193 252.76 194.121 252.76Z" fill="black"/>
<path d="M195.231 252.76H79.2927C77.7015 252.685 76.1761 252.102 74.9401 251.097C73.704 250.093 72.8224 248.718 72.4244 247.176L57.5849 182.324C56.8869 179.253 58.8204 176.74 61.8916 176.74H177.829C179.42 176.817 180.944 177.401 182.18 178.405C183.416 179.41 184.298 180.783 184.698 182.324L199.537 247.169C200.242 250.247 198.302 252.76 195.231 252.76Z" fill="#407BFF"/>
<path opacity="0.2" d="M73.158 220.393C72.53 220.364 71.9281 220.134 71.4406 219.737C70.9532 219.34 70.6059 218.797 70.4498 218.188L62.5345 183.574C62.4596 183.316 62.4467 183.045 62.4966 182.781C62.5466 182.518 62.6581 182.27 62.8221 182.058C62.986 181.845 63.1978 181.675 63.4401 181.56C63.6825 181.445 63.9485 181.389 64.2166 181.396H177.621C178.249 181.425 178.852 181.654 179.339 182.052C179.827 182.449 180.174 182.992 180.329 183.602L188.251 218.188C188.331 218.449 188.346 218.725 188.297 218.993C188.248 219.261 188.135 219.514 187.968 219.73C187.802 219.946 187.586 220.118 187.339 220.234C187.092 220.349 186.821 220.404 186.548 220.393H73.158Z" fill="black"/>
<path opacity="0.2" d="M119.882 247.601C119.516 247.584 119.164 247.45 118.879 247.219C118.594 246.988 118.391 246.672 118.297 246.317L113.684 226.152C113.638 226 113.629 225.839 113.658 225.684C113.687 225.528 113.753 225.381 113.85 225.255C113.946 225.13 114.072 225.029 114.215 224.962C114.359 224.894 114.516 224.862 114.675 224.868H147.076C147.445 224.881 147.8 225.014 148.088 225.245C148.376 225.476 148.582 225.794 148.674 226.152L153.295 246.317C153.341 246.469 153.349 246.63 153.321 246.785C153.292 246.941 153.226 247.088 153.129 247.214C153.032 247.339 152.907 247.44 152.764 247.507C152.62 247.575 152.463 247.607 152.304 247.601H119.882Z" fill="black"/>
<path d="M198.392 202.351L201.882 110.375C201.907 109.8 201.815 109.225 201.612 108.686C201.41 108.147 201.1 107.654 200.703 107.237C200.305 106.82 199.828 106.487 199.299 106.259C198.77 106.031 198.201 105.911 197.625 105.908L138.993 105.413C137.807 105.413 136.667 105.87 135.809 106.689C134.951 107.508 134.441 108.625 134.386 109.81L130.896 201.778C130.87 202.355 130.962 202.93 131.164 203.47C131.366 204.01 131.675 204.504 132.073 204.921C132.47 205.339 132.948 205.672 133.477 205.901C134.007 206.13 134.577 206.249 135.154 206.253L193.786 206.748C194.971 206.746 196.11 206.288 196.967 205.47C197.825 204.651 198.335 203.535 198.392 202.351Z" fill="#407BFF"/>
<path opacity="0.4" d="M198.392 202.351L201.882 110.375C201.907 109.8 201.815 109.225 201.612 108.686C201.41 108.147 201.1 107.654 200.703 107.237C200.305 106.82 199.828 106.487 199.299 106.259C198.77 106.031 198.201 105.911 197.625 105.908L138.993 105.413C137.807 105.413 136.667 105.87 135.809 106.689C134.951 107.508 134.441 108.625 134.386 109.81L130.896 201.778C130.87 202.355 130.962 202.93 131.164 203.47C131.366 204.01 131.675 204.504 132.073 204.921C132.47 205.339 132.948 205.672 133.477 205.901C134.007 206.13 134.577 206.249 135.154 206.253L193.786 206.748C194.971 206.746 196.11 206.288 196.967 205.47C197.825 204.651 198.335 203.535 198.392 202.351Z" fill="black"/>
<path d="M199.684 202.35L203.209 110.375C203.232 109.799 203.14 109.224 202.936 108.685C202.733 108.146 202.423 107.653 202.025 107.236C201.627 106.819 201.149 106.487 200.62 106.258C200.09 106.03 199.521 105.911 198.944 105.907L140.298 105.398C139.112 105.398 137.972 105.856 137.114 106.674C136.257 107.493 135.747 108.611 135.691 109.795L132.201 201.764C132.176 202.34 132.267 202.915 132.469 203.455C132.672 203.995 132.981 204.489 133.378 204.907C133.776 205.325 134.254 205.658 134.783 205.887C135.312 206.115 135.883 206.235 136.459 206.238L195.091 206.734C196.272 206.73 197.407 206.273 198.261 205.457C199.116 204.642 199.625 203.53 199.684 202.35Z" fill="#407BFF"/>
<path opacity="0.9" d="M199.474 111.352C199.484 111.125 199.447 110.898 199.367 110.686C199.287 110.473 199.165 110.279 199.007 110.115C198.85 109.95 198.662 109.82 198.453 109.73C198.244 109.64 198.019 109.594 197.792 109.593L141.177 109.111C140.71 109.113 140.26 109.294 139.922 109.617C139.585 109.941 139.384 110.382 139.363 110.849L135.915 200.801C135.905 201.028 135.942 201.255 136.022 201.468C136.102 201.681 136.224 201.876 136.381 202.04C136.538 202.205 136.727 202.337 136.935 202.427C137.144 202.517 137.369 202.565 137.597 202.567L194.211 203.041C194.679 203.042 195.128 202.862 195.466 202.54C195.804 202.217 196.005 201.777 196.026 201.31L199.474 111.352Z" fill="white"/>
<path opacity="0.3" d="M188.746 171.882C192.148 167.592 194.131 162.35 194.421 156.882C194.712 151.56 193.24 146.291 190.233 141.889V141.82C190.184 141.74 190.126 141.668 190.058 141.603C187.829 138.475 184.879 135.931 181.457 134.185C178.036 132.439 174.244 131.543 170.403 131.573C166.421 131.604 162.496 132.525 158.915 134.268C155.335 136.01 152.189 138.531 149.707 141.645C149.654 141.7 149.606 141.758 149.56 141.82L149.526 141.882C146.093 146.161 144.087 151.406 143.788 156.882C143.489 162.21 144.961 167.487 147.976 171.889C147.979 171.91 147.979 171.931 147.976 171.952L148.039 172.022C150.271 175.196 153.242 177.78 156.696 179.549C160.149 181.318 163.982 182.221 167.862 182.178C171.838 182.148 175.756 181.231 179.332 179.493C182.908 177.755 186.05 175.241 188.53 172.134C188.592 172.072 188.65 172.007 188.704 171.938L188.746 171.882ZM168.009 179.184C164.393 179.184 161.343 174.947 159.786 168.714C162.677 168.136 165.619 167.846 168.567 167.848C171.497 167.84 174.42 168.127 177.292 168.707C175.1 174.947 171.631 179.184 168.009 179.184ZM168.707 164.833C165.507 164.825 162.315 165.141 159.179 165.775C158.794 163.333 158.623 160.862 158.669 158.39H179.386C179.183 160.882 178.77 163.353 178.151 165.775C175.048 165.138 171.888 164.822 168.721 164.833H168.707ZM146.782 158.39H155.654C155.587 161.105 155.769 163.82 156.198 166.501C153.989 167.12 151.856 167.987 149.84 169.084C147.893 165.853 146.843 162.162 146.796 158.39H146.782ZM151.047 144.681C152.97 145.788 155.021 146.655 157.155 147.264C156.467 149.925 156.016 152.641 155.808 155.382H146.943C147.397 151.526 148.813 147.847 151.061 144.681H151.047ZM170.193 134.588C173.816 134.588 176.866 138.818 178.423 145.058C175.53 145.639 172.586 145.929 169.635 145.924C166.714 145.932 163.8 145.642 160.938 145.058C163.123 138.818 166.585 134.588 170.207 134.588H170.193ZM169.495 148.939C172.698 148.943 175.893 148.62 179.03 147.976C179.412 150.421 179.58 152.894 179.533 155.368H158.837C159.035 152.873 159.446 150.4 160.065 147.976C163.169 148.623 166.332 148.946 169.502 148.939H169.495ZM191.42 155.382H182.548C182.608 152.665 182.426 149.948 182.004 147.264C184.214 146.648 186.348 145.781 188.362 144.681C190.316 147.913 191.373 151.606 191.427 155.382H191.42ZM182.394 158.39H191.252C190.791 162.242 189.376 165.918 187.134 169.084C185.209 167.981 183.158 167.114 181.026 166.501C181.72 163.843 182.18 161.129 182.401 158.39H182.394ZM186.638 142.259C184.966 143.133 183.21 143.835 181.396 144.353C180.726 141.34 179.482 138.485 177.732 135.942C181.21 137.222 184.285 139.402 186.645 142.259H186.638ZM162.543 135.922C160.557 138.436 159.034 141.284 158.048 144.332C156.299 143.821 154.611 143.119 153.016 142.238C155.637 139.393 158.908 137.226 162.55 135.922H162.543ZM151.571 171.52C153.24 170.646 154.994 169.944 156.806 169.426C157.481 172.438 158.727 175.293 160.477 177.836C157.003 176.554 153.931 174.372 151.578 171.513L151.571 171.52ZM175.666 177.857C177.648 175.341 179.17 172.493 180.161 169.446C181.909 169.962 183.596 170.664 185.193 171.54C182.577 174.383 179.31 176.548 175.673 177.85L175.666 177.857Z" fill="#407BFF"/>
<path opacity="0.6" d="M153.413 109.216L143.354 202.615L156.756 202.727L166.814 109.328L153.413 109.216Z" fill="white"/>
<path opacity="0.6" d="M171.386 109.37L161.328 202.769L166.828 202.811L176.887 109.412L171.386 109.37Z" fill="white"/>
<path opacity="0.3" d="M168.301 108.008C168.486 108.008 168.664 107.935 168.795 107.804C168.925 107.673 168.999 107.496 168.999 107.31C169.005 107.221 168.992 107.131 168.962 107.046C168.931 106.962 168.884 106.885 168.822 106.819C168.761 106.754 168.687 106.702 168.604 106.666C168.522 106.63 168.433 106.612 168.343 106.612C168.158 106.612 167.98 106.686 167.849 106.817C167.718 106.948 167.645 107.125 167.645 107.31C167.639 107.4 167.652 107.49 167.682 107.574C167.713 107.659 167.76 107.736 167.822 107.802C167.883 107.867 167.957 107.919 168.04 107.955C168.122 107.99 168.211 108.009 168.301 108.008Z" fill="white"/>
<path d="M216.066 227.004L219.591 154.816C219.616 154.241 219.524 153.666 219.321 153.126C219.119 152.586 218.81 152.093 218.412 151.676C218.015 151.258 217.537 150.925 217.009 150.696C216.48 150.467 215.91 150.346 215.334 150.342L181.432 149.854C180.247 149.854 179.108 150.31 178.25 151.127C177.393 151.945 176.882 153.061 176.825 154.244L173.335 226.438C173.31 227.014 173.402 227.588 173.605 228.128C173.808 228.667 174.117 229.16 174.514 229.577C174.912 229.994 175.389 230.326 175.918 230.555C176.447 230.783 177.017 230.902 177.593 230.905L211.495 231.401C212.674 231.392 213.806 230.931 214.656 230.113C215.506 229.295 216.011 228.182 216.066 227.004Z" fill="#407BFF"/>
<path opacity="0.4" d="M216.066 227.004L219.591 154.816C219.616 154.241 219.524 153.666 219.321 153.126C219.119 152.586 218.81 152.093 218.412 151.676C218.015 151.258 217.537 150.925 217.009 150.696C216.48 150.467 215.91 150.346 215.334 150.342L181.432 149.854C180.247 149.854 179.108 150.31 178.25 151.127C177.393 151.945 176.882 153.061 176.825 154.244L173.335 226.438C173.31 227.014 173.402 227.588 173.605 228.128C173.808 228.667 174.117 229.16 174.514 229.577C174.912 229.994 175.389 230.326 175.918 230.555C176.447 230.783 177.017 230.902 177.593 230.905L211.495 231.401C212.674 231.392 213.806 230.931 214.656 230.113C215.506 229.295 216.011 228.182 216.066 227.004Z" fill="black"/>
<path d="M217.365 227.004L220.855 154.816C220.88 154.24 220.789 153.665 220.587 153.125C220.384 152.585 220.075 152.091 219.678 151.673C219.28 151.256 218.802 150.922 218.273 150.694C217.744 150.465 217.173 150.345 216.597 150.342L182.695 149.854C181.511 149.854 180.373 150.31 179.516 151.128C178.66 151.945 178.151 153.061 178.095 154.244L174.57 226.438C174.546 227.014 174.638 227.588 174.84 228.128C175.043 228.667 175.352 229.16 175.75 229.577C176.147 229.994 176.625 230.326 177.154 230.555C177.683 230.783 178.252 230.902 178.828 230.905L212.73 231.401C213.92 231.406 215.066 230.952 215.93 230.132C216.793 229.313 217.307 228.192 217.365 227.004Z" fill="#407BFF"/>
<path opacity="0.9" d="M217.155 155.794C217.164 155.567 217.127 155.34 217.046 155.127C216.966 154.915 216.843 154.721 216.687 154.556C216.53 154.391 216.342 154.26 216.133 154.169C215.925 154.078 215.701 154.03 215.473 154.028L183.575 153.56C183.107 153.561 182.657 153.743 182.32 154.066C181.982 154.39 181.781 154.831 181.76 155.298L178.326 225.454C178.316 225.681 178.353 225.908 178.433 226.121C178.513 226.334 178.635 226.529 178.792 226.694C178.949 226.859 179.138 226.99 179.347 227.08C179.555 227.171 179.78 227.218 180.008 227.22L211.892 227.695C212.36 227.695 212.809 227.515 213.147 227.193C213.485 226.871 213.686 226.43 213.707 225.964L217.155 155.794Z" fill="white"/>
<path opacity="0.3" d="M209.791 200.326C211.881 197.694 213.101 194.476 213.281 191.119C213.458 187.851 212.552 184.615 210.706 181.913C210.706 181.913 210.706 181.913 210.706 181.871C210.677 181.824 210.644 181.78 210.608 181.738C209.237 179.818 207.424 178.257 205.322 177.185C203.22 176.114 200.891 175.564 198.532 175.582C196.089 175.601 193.68 176.166 191.483 177.236C189.287 178.306 187.357 179.854 185.836 181.766L185.738 181.871V181.913C183.644 184.543 182.424 187.762 182.248 191.119C182.064 194.391 182.97 197.631 184.824 200.333V200.368C184.824 200.368 184.824 200.368 184.859 200.41C186.227 202.346 188.044 203.921 190.154 205.001C192.265 206.08 194.605 206.632 196.976 206.608C199.415 206.589 201.82 206.026 204.014 204.96C206.208 203.894 208.136 202.351 209.659 200.445C209.699 200.406 209.737 200.364 209.77 200.319L209.791 200.326ZM197.067 204.807C194.84 204.807 192.969 202.211 192.02 198.379C193.794 198.025 195.599 197.847 197.409 197.848C199.202 197.845 200.991 198.023 202.748 198.379C201.415 202.176 199.286 204.772 197.067 204.772V204.807ZM197.499 195.998C195.535 195.994 193.575 196.189 191.65 196.578C191.417 195.08 191.314 193.564 191.343 192.048H204.047C203.926 193.577 203.674 195.092 203.293 196.578C201.399 196.177 199.47 195.972 197.534 195.964L197.499 195.998ZM184.042 192.048H189.493C189.455 193.713 189.567 195.379 189.828 197.025C188.47 197.404 187.159 197.935 185.92 198.609C184.717 196.617 184.069 194.34 184.042 192.013V192.048ZM186.659 183.574C187.841 184.25 189.099 184.782 190.408 185.159C189.987 186.792 189.711 188.46 189.584 190.142H184.133C184.412 187.776 185.281 185.518 186.659 183.574ZM198.414 177.376C200.64 177.376 202.511 179.972 203.467 183.804C201.691 184.161 199.883 184.339 198.072 184.335C196.278 184.341 194.489 184.164 192.732 183.804C194.044 179.993 196.194 177.397 198.414 177.397V177.376ZM197.981 186.185C199.945 186.189 201.905 185.995 203.83 185.605C204.064 187.106 204.167 188.624 204.137 190.142H191.434C191.557 188.611 191.809 187.094 192.188 185.605C194.093 186.003 196.034 186.204 197.981 186.206V186.185ZM211.438 190.142H205.987C206.025 188.474 205.913 186.806 205.652 185.159C207.01 184.779 208.322 184.248 209.561 183.574C210.762 185.564 211.41 187.839 211.438 190.163V190.142ZM205.91 192.013H211.362C211.081 194.377 210.212 196.632 208.835 198.574C207.653 197.898 206.395 197.366 205.087 196.99C205.507 195.358 205.783 193.693 205.91 192.013ZM208.521 182.108C207.494 182.64 206.416 183.065 205.303 183.379C204.89 181.528 204.125 179.774 203.048 178.213C205.181 179.006 207.064 180.35 208.507 182.108H208.521ZM193.73 178.213C192.5 179.756 191.555 181.505 190.938 183.379C189.864 183.069 188.827 182.643 187.846 182.108C189.458 180.353 191.473 179.017 193.716 178.213H193.73ZM186.994 200.061C188.02 199.531 189.095 199.106 190.205 198.79C190.621 200.64 191.386 202.393 192.46 203.956C190.319 203.169 188.427 201.825 186.98 200.061H186.994ZM201.778 203.956C203.008 202.413 203.953 200.664 204.57 198.79C205.643 199.103 206.68 199.529 207.662 200.061C206.042 201.819 204.018 203.156 201.764 203.956H201.778Z" fill="#407BFF"/>
<path opacity="0.6" d="M189.48 153.644L181.62 227.241L192.132 227.401L200.061 153.797L189.48 153.644Z" fill="white"/>
<path opacity="0.6" d="M203.67 153.853L195.74 227.457L200.082 227.52L208.011 153.916L203.67 153.853Z" fill="white"/>
<path opacity="0.3" d="M185.927 152.555C186.112 152.555 186.289 152.481 186.42 152.351C186.551 152.22 186.625 152.042 186.625 151.857C186.625 151.679 186.557 151.507 186.435 151.378C186.313 151.248 186.146 151.17 185.969 151.159C185.783 151.159 185.606 151.232 185.475 151.363C185.344 151.494 185.271 151.672 185.271 151.857C185.27 152.035 185.338 152.207 185.46 152.336C185.582 152.466 185.749 152.544 185.927 152.555Z" fill="white"/>
</svg>
