<svg width="38" height="38" viewBox="0 0 38 38" fill="none" xmlns="http://www.w3.org/2000/svg">
<path fill-rule="evenodd" clip-rule="evenodd" d="M38 19C38 29.4934 29.4934 38 19 38C8.50659 38 0 29.4934 0 19C0 8.50659 8.50659 0 19 0C29.4934 0 38 8.50659 38 19ZM20.9693 5.832H25.1782H25.1803V10.3741C24.9393 10.3755 24.2225 10.375 23.5662 10.3746C23.2596 10.3743 22.9663 10.3741 22.7408 10.3741C22.7377 10.3741 22.7329 10.374 22.7265 10.3739C22.5499 10.3703 21.1624 10.3418 21.1624 11.723C21.1715 12.3074 21.1624 14.3197 21.1624 14.3197H25.1967L24.8698 18.8434H21.2568V32.168H15.7828V18.9307H12.8038V14.3326H15.6933C15.6933 13.8697 15.6948 13.4244 15.6961 12.9885C15.6988 12.1441 15.7014 11.3352 15.6933 10.5031C15.6933 6.88252 18.4715 5.832 20.9693 5.832Z" fill="white"/>
</svg>
