<svg width="38" height="38" viewBox="0 0 38 38" fill="none" xmlns="http://www.w3.org/2000/svg">
<path d="M0 19C0 13.7552 1.85547 9.27734 5.56644 5.5664C9.27733 1.85547 13.7552 0 19 0C24.2448 0 28.7226 1.85547 32.4336 5.5664C36.1445 9.27734 38 13.7552 38 19C38 24.2448 36.1445 28.7226 32.4336 32.4336C28.7227 36.1445 24.2448 38 19 38C13.7552 38 9.27733 36.1445 5.56644 32.4336C1.85547 28.7227 0 24.2447 0 19ZM2.07812 19C2.07812 23.6511 3.73567 27.6341 7.05077 30.9492C10.3659 34.2643 14.3489 35.9219 19 35.9219C23.6511 35.9219 27.6341 34.2643 30.9492 30.9492C34.2643 27.6341 35.9219 23.6511 35.9219 19C35.9219 14.3489 34.2644 10.3659 30.9492 7.05077C27.6341 3.73567 23.651 2.07812 19 2.07812C14.3489 2.07812 10.3659 3.73567 7.05077 7.05077C3.73567 10.3659 2.07812 14.3489 2.07812 19ZM7.42191 23.082C7.32295 22.983 7.32295 22.8841 7.42191 22.7851C7.61978 22.5872 7.86722 22.513 8.16405 22.5625C8.46093 22.612 8.63411 22.6614 8.68359 22.7109C9.02994 22.8594 9.41342 23.1933 9.83396 23.7129C10.2545 24.2324 10.5885 24.5911 10.8359 24.789C12.0234 25.7786 13.2356 25.8528 14.4726 25.0117C14.5716 24.6653 14.7324 24.3685 14.955 24.121C15.1776 23.8736 15.388 23.7005 15.5859 23.6015C15.7838 23.5025 16.1302 23.3541 16.625 23.1562C14.9921 23.0078 13.6686 22.7232 12.6543 22.3027C11.6399 21.8821 10.8359 21.3502 10.2421 20.707C9.45047 19.8163 8.96803 18.6536 8.79486 17.2187C8.62164 15.7838 8.73299 14.4726 9.12886 13.2851C9.42573 12.5429 9.84631 11.875 10.3905 11.2812C9.99471 10.0442 10.0689 8.63407 10.6132 7.05074C12.1965 7.14969 13.6314 7.69396 14.9179 8.68355C17.3918 8.04032 19.9647 8.01558 22.6366 8.60933C22.9829 8.36193 23.5149 8.05271 24.2323 7.68158C24.9497 7.31048 25.8527 7.10018 26.9413 7.0507C27.1392 7.59497 27.2753 8.2382 27.3495 8.98038C27.4237 9.72257 27.3866 10.4153 27.2382 11.0585C28.3762 12.246 28.9699 13.8293 29.0194 15.8085C29.0194 17.3918 28.7473 18.703 28.203 19.7421C27.6588 20.7812 26.6939 21.647 25.3085 22.3397C24.3684 22.7851 23.1314 23.0572 21.5976 23.1561C22.2903 23.5025 22.7974 23.8612 23.1191 24.2323C23.4407 24.6034 23.651 25.1848 23.75 25.9764V28.3144L23.8242 30.578C23.9726 30.8255 24.1458 31.0357 24.3437 31.2089C24.5416 31.3821 24.7148 31.5058 24.8633 31.58C25.0117 31.6542 25.0612 31.7656 25.0117 31.914C24.9622 32.0625 24.7643 32.1367 24.4179 32.1367C23.5768 32.1367 22.9088 31.8398 22.414 31.246C22.2656 30.9986 22.1914 30.7018 22.1914 30.3554V26.7929C22.1914 26.3971 22.0924 26.1125 21.8945 25.9394C21.6966 25.7662 21.4987 25.6548 21.3008 25.6054V30.2811C21.3008 31.1223 21.3997 31.6666 21.5976 31.914C21.7956 32.1614 21.9192 32.4088 21.9688 32.6561C22.0182 32.7056 21.9811 32.7427 21.8574 32.7675C21.7338 32.7922 21.5235 32.7551 21.2265 32.6561C20.5833 32.5077 20.138 32.1737 19.8906 31.6542C19.6432 31.1346 19.5195 30.578 19.5195 29.9842V25.3828H18.5547V29.9843C18.5547 30.5781 18.4309 31.1471 18.1835 31.6914C17.8372 32.3841 17.194 32.7552 16.2539 32.8047C16.1055 32.7552 16.0312 32.7057 16.0312 32.6563C16.0807 32.6067 16.2292 32.3594 16.4765 31.9141C16.526 31.8151 16.5879 31.6172 16.6621 31.3203C16.7364 31.0234 16.7735 30.6771 16.7735 30.2813V25.6054C16.5755 25.6549 16.39 25.7662 16.2168 25.9394C16.0436 26.1127 15.957 26.3971 15.957 26.793V30.3555C15.957 30.7018 15.8828 30.9987 15.7344 31.2461C15.289 31.8398 14.6211 32.1368 13.7305 32.1368C13.3841 32.1368 13.1862 32.0625 13.1367 31.9141C13.0872 31.8151 13.0996 31.7285 13.1739 31.6543C13.2481 31.5801 13.3594 31.4935 13.5079 31.3945C13.6563 31.2956 13.7553 31.2213 13.8048 31.1719C14.0027 31.0234 14.1511 30.8255 14.2501 30.5781C14.3985 30.3802 14.4356 29.8607 14.3614 29.0195C14.2872 28.1784 14.2748 27.6341 14.3242 27.3867C13.0377 27.832 11.7266 27.6093 10.3906 26.7188C9.99478 26.3229 9.59895 25.7539 9.20312 25.0117C8.90624 24.4674 8.31249 23.8242 7.42191 23.082Z" fill="white"/>
</svg>
