<svg width="38" height="38" viewBox="0 0 38 38" fill="none" xmlns="http://www.w3.org/2000/svg">
<path fill-rule="evenodd" clip-rule="evenodd" d="M9.63581 37.8656C7.37593 37.7628 6.1483 37.3867 5.33177 37.0683C4.24983 36.647 3.47847 36.1456 2.66645 35.3347C1.85443 34.5238 1.35186 33.7524 0.932862 32.6705C0.614379 31.854 0.238298 30.6263 0.135525 28.3665C0.0225875 25.9236 0 25.1907 0 19.0017C0 12.8127 0.0248462 12.0809 0.134395 9.63581C0.237168 7.37593 0.615508 6.15056 0.931732 5.33177C1.35299 4.24983 1.85556 3.47847 2.66532 2.66532C3.47621 1.85443 4.24757 1.35073 5.33064 0.931732C6.14718 0.613249 7.3748 0.237168 9.63468 0.134395C12.0786 0.0225875 12.8127 0 18.9994 0C25.1884 0 25.9202 0.0248462 28.3653 0.134395C30.6252 0.237168 31.8506 0.615508 32.6694 0.931732C33.7513 1.35073 34.5227 1.85443 35.3347 2.66532C36.1467 3.47621 36.647 4.2487 37.0683 5.33064C37.3867 6.14718 37.7628 7.3748 37.8656 9.63468C37.9774 12.0798 38 12.8116 38 19.0006C38 25.1873 37.9774 25.9214 37.8656 28.3665C37.7628 30.6263 37.3845 31.854 37.0683 32.6705C36.647 33.7524 36.1456 34.5238 35.3347 35.3347C34.5238 36.1456 33.7513 36.647 32.6694 37.0683C31.8528 37.3867 30.6252 37.7628 28.3653 37.8656C25.9225 37.9774 25.1884 38 18.9994 38C12.8127 38 12.0786 37.9785 9.63581 37.8656ZM19.0394 14.3749C16.4406 14.3749 14.3344 16.4822 14.3344 19.081C14.3344 21.6798 16.4406 23.787 19.0394 23.787C21.6382 23.787 23.7455 21.6798 23.7455 19.081C23.7455 16.4822 21.6382 14.3749 19.0394 14.3749ZM19.0394 26.3299C15.0358 26.3299 11.7904 23.0846 11.7904 19.081H11.7905C11.7905 15.0771 15.0358 11.832 19.0394 11.832C23.043 11.832 26.2884 15.0773 26.2884 19.081C26.2884 23.0846 23.043 26.3299 19.0394 26.3299ZM25.1666 12.4858C24.9805 12.2072 24.8813 11.8796 24.8814 11.5445C24.8818 11.0954 25.0604 10.6648 25.3781 10.3473C25.6957 10.0298 26.1264 9.85136 26.5755 9.85116H26.5762C26.9112 9.85129 27.2387 9.95077 27.5172 10.137C27.7957 10.3233 28.0128 10.588 28.1409 10.8976C28.269 11.2072 28.3024 11.5478 28.2369 11.8764C28.1714 12.205 28.0099 12.5067 27.7729 12.7436C27.5359 12.9804 27.234 13.1416 26.9053 13.2069C26.5767 13.2721 26.2361 13.2384 25.9266 13.1101C25.6171 12.9817 25.3526 12.7645 25.1666 12.4858ZM10.7145 30.0865C11.2116 30.2801 11.9597 30.5094 13.3361 30.5721V30.5723C14.8237 30.6408 15.2695 30.6544 19.0394 30.6544C22.8094 30.6544 23.2564 30.6408 24.7444 30.5723C26.1208 30.5098 26.8691 30.2805 27.3661 30.0867C28.0252 29.8301 28.4961 29.524 28.9899 29.0307C29.4836 28.5374 29.7892 28.0671 30.0458 27.408C30.2384 26.9109 30.4688 26.1628 30.5315 24.7864C30.5999 23.2971 30.6136 22.8514 30.6136 19.0814C30.6136 15.3114 30.5999 14.8657 30.5315 13.3764C30.4689 12 30.2396 11.2517 30.0458 10.7548C29.7892 10.0957 29.4843 9.62472 28.9899 9.13095C28.4954 8.63719 28.0252 8.33045 27.3661 8.07499C26.8677 7.883 26.1208 7.65204 24.7444 7.58936C23.2551 7.5216 22.8077 7.50703 19.0394 7.50703C15.2711 7.50703 14.8241 7.52069 13.3361 7.58913C11.9597 7.6517 11.2114 7.88096 10.7145 8.07476C10.0542 8.33023 9.58442 8.63629 9.09066 9.13073C8.59689 9.62517 8.29129 10.0954 8.03469 10.7545C7.8427 11.2529 7.61174 11.9998 7.54906 13.3762C7.48175 14.8655 7.46696 15.3112 7.46696 19.0812C7.46696 22.8511 7.48062 23.2981 7.54906 24.7862C7.61163 26.1626 7.84089 26.9109 8.03469 27.4078C8.29016 28.0669 8.59622 28.5367 9.09066 29.0305C9.5851 29.5243 10.0554 29.8299 10.7145 30.0865ZM9.79256 5.705C10.6894 5.35603 11.7163 5.11773 13.2192 5.04929H13.2198C14.7258 4.97972 15.2079 4.96379 19.0411 4.96379C22.8743 4.96379 23.3553 4.98051 24.8608 5.04929C26.3625 5.1166 27.3889 5.35603 28.2874 5.705C29.2145 6.06538 30.0026 6.54763 30.787 7.33333C31.5715 8.11904 32.054 8.90587 32.4154 9.8341C32.7643 10.7309 33.0026 11.7578 33.0711 13.2607C33.1395 14.766 33.1554 15.2472 33.1554 19.081C33.1554 22.9147 33.1395 23.3948 33.0711 24.9012C33.0038 26.404 32.7643 27.4304 32.4154 28.3278C32.054 29.256 31.5727 30.0441 30.787 30.8286C30.0013 31.613 29.2145 32.0955 28.2863 32.4569C27.3889 32.8059 26.3626 33.0442 24.8596 33.1126C23.3544 33.1822 22.8732 33.1981 19.0394 33.1981C15.2056 33.1981 14.7252 33.1811 13.2192 33.1126C11.7163 33.0442 10.6911 32.8059 9.79256 32.4569C8.8632 32.0955 8.07738 31.6127 7.29179 30.8286C6.5062 30.0444 6.02384 29.256 5.66346 28.3278C5.31449 27.4304 5.07619 26.4041 5.00775 24.9012C4.93818 23.3959 4.92225 22.9147 4.92225 19.081C4.92225 15.2472 4.93818 14.766 5.00775 13.2607C5.07619 11.7579 5.31449 10.7315 5.66346 9.8341C6.02384 8.90474 6.50609 8.11779 7.29179 7.33333C8.07749 6.54887 8.86433 6.06538 9.79256 5.705Z" fill="white"/>
</svg>
